<svg xmlns="http://www.w3.org/2000/svg" width="32" height="32" viewBox="0 0 32 32" fill="none">
  <path d="M16 0C7.164 0 0 7.164 0 16C0 20.386 1.686 24.267 4.432 27.038V32L9.076 30.158C12.077 31.611 15.58 32 16 32C24.836 32 32 24.836 32 16C32 7.164 24.836 0 16 0ZM16 29.061C14.8 29.061 11.891 28.665 9.573 27.392L6.364 28.787L7.451 25.85C4.942 23.282 3.438 20.237 3.438 16C3.438 8.798 9.798 2.438 16 2.438C22.202 2.438 28.561 8.798 28.561 16C28.561 23.202 22.202 29.061 16 29.061ZM21.08 19.735C20.735 19.581 18.866 18.68 18.574 18.556C18.283 18.433 18.095 18.392 17.907 18.71C17.718 19.027 17.249 19.619 17.06 19.809C16.871 19.999 16.681 20.02 16.336 19.867C15.99 19.713 14.94 19.408 14.016 18.47C13.091 17.531 12.634 16.481 12.479 16.136C12.325 15.791 12.346 15.6 12.536 15.411C12.726 15.222 13.318 14.753 13.635 14.564C13.952 14.375 14.011 14.186 14.011 13.897C14.011 13.609 13.952 12.831 13.635 12.524C13.318 12.216 12.972 12.172 12.793 12.172C12.614 12.172 12.425 12.172 12.173 12.172C11.92 12.172 11.441 12.306 11.05 12.922C10.659 13.538 9.847 14.79 9.847 16.028C9.847 17.267 10.659 18.506 10.659 18.506C10.659 18.506 12.221 21.14 14.901 22.258C15.782 22.616 16.622 22.8 17.341 22.8C18.06 22.8 18.678 22.652 19.057 22.542C19.436 22.432 20.75 21.669 20.978 21.339C21.206 21.009 21.426 20.567 21.546 20.376C21.666 20.184 21.547 19.889 21.08 19.735Z" fill="#000000"/>
</svg>
